<svg width="49" height="49" fill="none" xmlns="http://www.w3.org/2000/svg"><circle cx="24.5" cy="24.5" r="24.5" fill="#F3EA12"/><path d="M38.48 37.563L24.1 41.415a6.661 6.661 0 01-1.228.198 6.94 6.94 0 01-1.367-.075 6.329 6.329 0 01-1.369-.387 5.423 5.423 0 01-1.294-.784 5.71 5.71 0 01-1.075-1.252c-.321-.504-.644-1.07-.826-1.753l-2.884-10.761c-.098-.367-.092-.798-.123-1.238A6.43 6.43 0 0114.012 24a5.73 5.73 0 01.401-1.386 5.08 5.08 0 01.792-1.276 5.45 5.45 0 011.252-1.09c.495-.318 1.085-.57 1.77-.753l14.378-3.852 1.065 3.974-14.378 3.853c-.521.14-.883.384-1.085.733-.202.35-.23.794-.086 1.334l2.875 10.731c.137.51.381.87.734 1.081.36.199.795.23 1.306.093l14.378-3.853 1.065 3.975z" fill="#212121"/><path d="M31.483 11.47l-6.37 1.707 4.95 18.477-3.985 1.067-4.951-18.476-9.686 2.595-1.065-3.975 20.043-5.37 1.064 3.974z" fill="#212121"/></svg>