<svg width="49" height="49" viewBox="0 0 49 49" fill="none" xmlns="http://www.w3.org/2000/svg">
<circle cx="24.5" cy="24.5" r="24.5" fill="#F3EA12"/>
<path d="M38.4792 37.5627L24.1008 41.4154C23.7329 41.5139 23.3234 41.58 22.8723 41.6134C22.4288 41.634 21.9729 41.6087 21.5048 41.5375C21.0469 41.4636 20.5906 41.3346 20.1361 41.1506C19.6788 40.9564 19.2473 40.6951 18.8417 40.3669C18.4436 40.0257 18.0854 39.6084 17.7669 39.1148C17.4457 38.611 17.1234 38.0452 16.9405 37.3624L14.0569 26.6007C13.9586 26.2338 13.9646 25.803 13.9343 25.3633C13.9116 24.9106 13.9376 24.4558 14.0124 23.9989C14.0843 23.5318 14.218 23.07 14.4133 22.6135C14.6086 22.157 14.8725 21.7314 15.2048 21.3365C15.5446 20.9287 15.9621 20.5656 16.4572 20.2472C16.9524 19.9288 17.5424 19.6779 18.2271 19.4945L32.6055 15.6418L33.6704 19.6163L19.292 23.469C18.7709 23.6086 18.4092 23.853 18.207 24.2021C18.0048 24.5512 17.9761 24.9958 18.1208 25.5359L20.9962 36.267C21.1327 36.7766 21.3772 37.1371 21.7296 37.3485C22.0894 37.547 22.5248 37.5778 23.0358 37.4409L37.4142 33.5882L38.4792 37.5627Z" fill="#212121"/>
<path d="M31.4835 11.4695L25.1124 13.1766L30.0634 31.6536L26.0779 32.7215L21.127 14.2445L11.4414 16.8397L10.3765 12.8652L30.4185 7.49498L31.4835 11.4695Z" fill="#212121"/>
</svg>
